<?xml version="1.0" encoding="utf-8"?>
<svg xmlns="http://www.w3.org/2000/svg" xmlns:xlink="http://www.w3.org/1999/xlink" width="375" zoomAndPan="magnify" viewBox="0 0 375 375" height="375" preserveAspectRatio="xMidYMid meet" version="1.0">
  <defs>
    <g />
    <clipPath id="56bc33151a">
      <path d="M 112 133 L 210 133 L 210 156 L 112 156 Z M 112 133 " clip-rule="nonzero" />
    </clipPath>
    <clipPath id="e4c19a18da">
      <path d="M 106.71875 150.230469 L 128.207031 100.347656 L 215.046875 137.757812 L 193.554688 187.640625 Z M 106.71875 150.230469 " clip-rule="nonzero" />
    </clipPath>
    <clipPath id="17806d99c3">
      <path d="M 106.71875 150.230469 L 128.207031 100.347656 L 215.046875 137.757812 L 193.554688 187.640625 Z M 106.71875 150.230469 " clip-rule="nonzero" />
    </clipPath>
    <clipPath id="4b199df361">
      <path d="M 112 132 L 211 132 L 211 157 L 112 157 Z M 112 132 " clip-rule="nonzero" />
    </clipPath>
    <clipPath id="f7a64c9d91">
      <path d="M 106.71875 150.230469 L 128.207031 100.347656 L 215.046875 137.757812 L 193.554688 187.640625 Z M 106.71875 150.230469 " clip-rule="nonzero" />
    </clipPath>
    <clipPath id="8c5dfa6af2">
      <path d="M 106.71875 150.230469 L 128.207031 100.347656 L 215.046875 137.757812 L 193.554688 187.640625 Z M 106.71875 150.230469 " clip-rule="nonzero" />
    </clipPath>
    <clipPath id="1ee60da55d">
      <path d="M 112 168 L 210 168 L 210 191 L 112 191 Z M 112 168 " clip-rule="nonzero" />
    </clipPath>
    <clipPath id="a72d06d094">
      <path d="M 106.71875 185.863281 L 127.972656 135.878906 L 214.988281 172.875 L 193.734375 222.863281 Z M 106.71875 185.863281 " clip-rule="nonzero" />
    </clipPath>
    <clipPath id="dd006b8a14">
      <path d="M 106.71875 185.863281 L 127.972656 135.878906 L 214.988281 172.875 L 193.734375 222.863281 Z M 106.71875 185.863281 " clip-rule="nonzero" />
    </clipPath>
    <clipPath id="d7810b02e9">
      <path d="M 112 168 L 211 168 L 211 192 L 112 192 Z M 112 168 " clip-rule="nonzero" />
    </clipPath>
    <clipPath id="ae050a23e7">
      <path d="M 106.71875 185.863281 L 127.972656 135.878906 L 214.988281 172.875 L 193.734375 222.863281 Z M 106.71875 185.863281 " clip-rule="nonzero" />
    </clipPath>
    <clipPath id="4069daef66">
      <path d="M 106.71875 185.863281 L 127.972656 135.878906 L 214.988281 172.875 L 193.734375 222.863281 Z M 106.71875 185.863281 " clip-rule="nonzero" />
    </clipPath>
    <clipPath id="538fe091be">
      <path d="M 112 205 L 210 205 L 210 228 L 112 228 Z M 112 205 " clip-rule="nonzero" />
    </clipPath>
    <clipPath id="b3c3e17a86">
      <path d="M 106.71875 223.097656 L 127.664062 172.980469 L 214.90625 209.445312 L 193.957031 259.558594 Z M 106.71875 223.097656 " clip-rule="nonzero" />
    </clipPath>
    <clipPath id="27834325d8">
      <path d="M 106.71875 223.097656 L 127.664062 172.980469 L 214.90625 209.445312 L 193.957031 259.558594 Z M 106.71875 223.097656 " clip-rule="nonzero" />
    </clipPath>
    <clipPath id="115667cf16">
      <path d="M 112 205 L 211 205 L 211 229 L 112 229 Z M 112 205 " clip-rule="nonzero" />
    </clipPath>
    <clipPath id="e3b34601a3">
      <path d="M 106.71875 223.097656 L 127.664062 172.980469 L 214.90625 209.445312 L 193.957031 259.558594 Z M 106.71875 223.097656 " clip-rule="nonzero" />
    </clipPath>
    <clipPath id="c504657cc4">
      <path d="M 106.71875 223.097656 L 127.664062 172.980469 L 214.90625 209.445312 L 193.957031 259.558594 Z M 106.71875 223.097656 " clip-rule="nonzero" />
    </clipPath>
  </defs>
  <g fill="#ffffff" fill-opacity="1">
    <g transform="translate(12.098824, 228.51394)">
      <g>
        <path d="M 84.71875 0 L 73.734375 0 L 73.734375 -44.453125 L 23.96875 -44.453125 L 23.96875 0 L 12.984375 0 L 12.984375 -94.46875 L 23.96875 -94.46875 L 23.96875 -54.28125 L 73.734375 -54.28125 L 73.734375 -94.46875 L 84.71875 -94.46875 Z M 84.71875 0 " />
      </g>
    </g>
  </g>
  <g clip-path="url(#56bc33151a)">
    <g clip-path="url(#e4c19a18da)">
      <g clip-path="url(#17806d99c3)">
        <path fill="#fa6000" d="M 209.367188 144.984375 C 209.300781 150.921875 204.441406 155.695312 198.519531 155.644531 C 198.507812 155.644531 198.5 155.644531 198.492188 155.644531 L 123.574219 154.921875 C 117.640625 154.9375 112.832031 150.125 112.832031 144.179688 C 112.832031 138.230469 117.640625 133.398438 123.574219 133.382812 C 123.660156 133.382812 198.75 134.109375 198.75 134.109375 C 204.679688 134.164062 209.433594 139.027344 209.367188 144.976562 C 209.367188 144.976562 209.367188 144.980469 209.367188 144.984375 Z M 209.367188 144.984375 " fill-opacity="1" fill-rule="nonzero" />
      </g>
    </g>
  </g>
  <g clip-path="url(#4b199df361)">
    <g clip-path="url(#f7a64c9d91)">
      <g clip-path="url(#8c5dfa6af2)">
        <path fill="#fa6000" d="M 209.132812 149.398438 C 207.359375 153.515625 203.253906 156.386719 198.511719 156.347656 C 198.511719 156.347656 198.484375 156.347656 198.484375 156.347656 L 123.566406 155.621094 C 120.515625 155.628906 117.644531 154.445312 115.484375 152.285156 C 113.320312 150.121094 112.132812 147.246094 112.132812 144.179688 C 112.132812 137.855469 117.265625 132.699219 123.574219 132.679688 C 123.664062 132.679688 191.070312 133.332031 198.757812 133.40625 C 205.066406 133.464844 210.140625 138.65625 210.066406 144.980469 L 209.367188 144.984375 L 210.066406 144.988281 C 210.046875 146.554688 209.71875 148.042969 209.132812 149.398438 Z M 198.527344 154.941406 C 204.054688 154.992188 208.601562 150.519531 208.664062 144.976562 C 208.664062 144.976562 208.664062 144.976562 208.664062 144.972656 C 208.730469 139.417969 204.277344 134.863281 198.742188 134.8125 C 197.992188 134.804688 123.894531 134.085938 123.570312 134.085938 C 118.039062 134.101562 113.53125 138.628906 113.53125 144.175781 C 113.53125 146.867188 114.578125 149.390625 116.472656 151.289062 C 118.371094 153.183594 120.890625 154.226562 123.574219 154.21875 L 198.5 154.941406 L 198.519531 155.644531 Z M 198.527344 154.941406 " fill-opacity="1" fill-rule="nonzero" />
      </g>
    </g>
  </g>
  <g clip-path="url(#1ee60da55d)">
    <g clip-path="url(#a72d06d094)">
      <g clip-path="url(#dd006b8a14)">
        <path fill="#fa6000" d="M 209.339844 180.128906 C 209.300781 186.066406 204.46875 190.863281 198.542969 190.839844 C 198.535156 190.839844 198.527344 190.839844 198.515625 190.839844 L 123.597656 190.472656 C 117.664062 190.515625 112.832031 185.730469 112.804688 179.78125 C 112.773438 173.835938 117.5625 168.980469 123.496094 168.9375 C 123.582031 168.933594 198.671875 169.304688 198.671875 169.304688 C 204.601562 169.332031 209.378906 174.171875 209.339844 180.121094 C 209.339844 180.121094 209.339844 180.125 209.339844 180.128906 Z M 209.339844 180.128906 " fill-opacity="1" fill-rule="nonzero" />
      </g>
    </g>
  </g>
  <g clip-path="url(#d7810b02e9)">
    <g clip-path="url(#ae050a23e7)">
      <g clip-path="url(#4069daef66)">
        <path fill="#fa6000" d="M 209.128906 184.542969 C 207.375 188.667969 203.28125 191.5625 198.539062 191.542969 C 198.539062 191.542969 198.511719 191.542969 198.511719 191.542969 L 123.589844 191.175781 C 120.542969 191.199219 117.664062 190.027344 115.492188 187.875 C 113.320312 185.722656 112.117188 182.851562 112.101562 179.789062 C 112.074219 173.464844 117.179688 168.28125 123.492188 168.234375 C 123.582031 168.234375 190.988281 168.566406 198.675781 168.601562 C 204.984375 168.628906 210.082031 173.796875 210.039062 180.121094 L 209.339844 180.128906 L 210.039062 180.132812 C 210.03125 181.695312 209.707031 183.1875 209.128906 184.542969 Z M 198.546875 190.140625 C 204.078125 190.160156 208.605469 185.667969 208.640625 180.125 C 208.640625 180.125 208.640625 180.121094 208.640625 180.121094 C 208.675781 174.566406 204.203125 170.03125 198.667969 170.007812 C 197.917969 170.003906 123.816406 169.640625 123.492188 169.636719 C 117.960938 169.679688 113.476562 174.226562 113.503906 179.777344 C 113.515625 182.464844 114.574219 184.988281 116.476562 186.875 C 118.382812 188.761719 120.910156 189.789062 123.59375 189.769531 L 198.523438 190.140625 L 198.542969 190.84375 Z M 198.546875 190.140625 " fill-opacity="1" fill-rule="nonzero" />
      </g>
    </g>
  </g>
  <g clip-path="url(#538fe091be)">
    <g clip-path="url(#b3c3e17a86)">
      <g clip-path="url(#27834325d8)">
        <path fill="#fa6000" d="M 209.300781 216.730469 C 209.300781 222.671875 204.496094 227.496094 198.570312 227.511719 C 198.5625 227.511719 198.554688 227.511719 198.546875 227.511719 L 123.625 227.605469 C 117.691406 227.683594 112.828125 222.925781 112.765625 216.980469 C 112.699219 211.035156 117.457031 206.148438 123.390625 206.066406 C 123.476562 206.066406 198.566406 205.972656 198.566406 205.972656 C 204.5 205.964844 209.304688 210.777344 209.300781 216.722656 C 209.300781 216.726562 209.300781 216.730469 209.300781 216.730469 Z M 209.300781 216.730469 " fill-opacity="1" fill-rule="nonzero" />
      </g>
    </g>
  </g>
  <g clip-path="url(#115667cf16)">
    <g clip-path="url(#e3b34601a3)">
      <g clip-path="url(#c504657cc4)">
        <path fill="#fa6000" d="M 209.121094 221.148438 C 207.390625 225.285156 203.3125 228.203125 198.570312 228.214844 C 198.570312 228.214844 198.546875 228.214844 198.546875 228.214844 L 123.621094 228.304688 C 120.574219 228.347656 117.6875 227.191406 115.503906 225.054688 C 113.320312 222.917969 112.097656 220.054688 112.066406 216.988281 C 111.996094 210.664062 117.074219 205.449219 123.382812 205.367188 C 123.472656 205.363281 190.882812 205.28125 198.566406 205.273438 C 204.878906 205.261719 210.007812 210.398438 210.003906 216.722656 L 209.300781 216.730469 L 210.003906 216.730469 C 210.003906 218.292969 209.6875 219.785156 209.121094 221.148438 Z M 198.570312 226.808594 C 204.101562 226.796875 208.601562 222.277344 208.601562 216.734375 C 208.601562 216.730469 208.601562 216.730469 208.601562 216.730469 C 208.605469 211.171875 204.105469 206.667969 198.566406 206.675781 C 197.816406 206.679688 123.71875 206.769531 123.390625 206.769531 C 117.859375 206.84375 113.40625 211.421875 113.464844 216.972656 C 113.496094 219.660156 114.566406 222.171875 116.484375 224.050781 C 118.402344 225.925781 120.933594 226.9375 123.617188 226.902344 L 198.546875 226.808594 L 198.570312 227.511719 Z M 198.570312 226.808594 " fill-opacity="1" fill-rule="nonzero" />
      </g>
    </g>
  </g>
  <g fill="#ffffff" fill-opacity="1">
    <g transform="translate(215.433168, 228.51394)">
      <g>
        <path d="M 12.984375 0 L 12.984375 -94.46875 L 23.96875 -94.46875 L 23.96875 -9.953125 L 65.65625 -9.953125 L 65.65625 0 Z M 12.984375 0 " />
      </g>
    </g>
  </g>
  <g fill="#ffffff" fill-opacity="1">
    <g transform="translate(284.125955, 228.51394)">
      <g>
        <path d="M 72.890625 -66.953125 C 72.890625 -57.378906 69.625 -50.019531 63.09375 -44.875 C 56.570312 -39.726562 47.238281 -37.15625 35.09375 -37.15625 L 23.96875 -37.15625 L 23.96875 0 L 12.984375 0 L 12.984375 -94.46875 L 37.484375 -94.46875 C 61.085938 -94.46875 72.890625 -85.296875 72.890625 -66.953125 Z M 23.96875 -46.59375 L 33.859375 -46.59375 C 43.597656 -46.59375 50.640625 -48.164062 54.984375 -51.3125 C 59.335938 -54.457031 61.515625 -59.5 61.515625 -66.4375 C 61.515625 -72.675781 59.46875 -77.328125 55.375 -80.390625 C 51.28125 -83.453125 44.90625 -84.984375 36.25 -84.984375 L 23.96875 -84.984375 Z M 23.96875 -46.59375 " />
      </g>
    </g>
  </g>
</svg>