<svg xmlns="http://www.w3.org/2000/svg" xmlns:xlink="http://www.w3.org/1999/xlink" width="1080" zoomAndPan="magnify" viewBox="0 0 810 809.999993" height="1080" preserveAspectRatio="xMidYMid meet" version="1.0"><defs><clipPath id="1bd625a1a6"><path d="M 52.972656 205 L 610 205 L 610 760.714844 L 52.972656 760.714844 Z M 52.972656 205 " clip-rule="nonzero"/></clipPath></defs><path fill="#ff914d" d="M 447.679688 307.054688 L 482.074219 405.25 C 483.710938 410.980469 489.441406 413.433594 495.175781 411.796875 L 589.347656 379.066406 C 590.984375 379.066406 591.804688 379.882812 592.625 380.703125 C 592.625 381.519531 592.625 382.339844 592.625 383.15625 C 576.246094 408.523438 583.617188 442.074219 608.183594 457.621094 C 617.191406 463.351562 638.480469 469.894531 655.679688 463.351562 C 683.519531 453.53125 699.082031 422.433594 689.253906 394.613281 C 683.519531 379.066406 671.238281 366.789062 655.679688 361.0625 C 654.859375 361.0625 654.042969 360.242188 654.042969 359.425781 C 653.222656 358.609375 654.042969 356.972656 654.859375 356.152344 L 749.03125 323.421875 C 754.765625 321.785156 757.222656 316.054688 755.585938 310.328125 L 665.503906 57.472656 C 663.867188 52.5625 658.136719 49.289062 652.402344 50.925781 L 400.183594 140.121094 C 394.453125 141.757812 391.996094 147.484375 393.632812 153.214844 L 428.027344 251.410156 C 432.9375 261.230469 444.402344 265.320312 455.050781 261.230469 C 461.601562 258.773438 467.332031 253.863281 468.96875 246.5 C 474.703125 228.496094 494.355469 219.496094 511.554688 225.226562 C 521.378906 228.496094 528.75 235.863281 532.84375 245.683594 C 539.394531 262.867188 529.570312 282.503906 512.371094 288.234375 C 502.546875 291.507812 491.082031 290.6875 482.890625 284.960938 C 477.160156 280.867188 469.789062 280.050781 462.417969 282.503906 C 462.417969 283.324219 441.945312 290.6875 447.679688 307.054688 Z M 447.679688 307.054688 " fill-opacity="1" fill-rule="nonzero"/><g clip-path="url(#1bd625a1a6)"><path fill="#ff914d" d="M 599.175781 473.167969 C 599.175781 473.167969 494.355469 473.167969 493.539062 473.167969 C 483.710938 473.167969 473.882812 488.71875 476.339844 500.992188 C 477.976562 505.902344 480.433594 510.8125 485.347656 514.085938 C 500.089844 525.539062 502.546875 546.816406 491.082031 561.546875 C 484.53125 569.730469 474.703125 574.640625 464.875 574.640625 C 446.042969 574.640625 431.300781 559.910156 431.300781 541.089844 C 431.300781 530.449219 436.214844 520.632812 444.402344 514.085938 C 454.230469 505.902344 455.867188 491.171875 448.5 481.351562 C 445.222656 477.261719 439.492188 473.167969 436.214844 473.167969 C 435.394531 473.167969 339.585938 472.351562 339.585938 472.351562 L 339.585938 382.339844 C 339.585938 380.703125 341.222656 379.882812 342.042969 379.882812 C 342.859375 379.882812 343.679688 379.882812 343.679688 380.703125 C 353.507812 393.792969 369.882812 401.976562 386.261719 401.976562 C 416.5625 401.976562 440.308594 378.246094 441.128906 347.96875 C 441.945312 317.691406 417.378906 293.960938 387.082031 293.144531 C 369.882812 293.144531 354.324219 300.507812 343.679688 314.417969 C 342.859375 315.238281 342.042969 315.238281 341.222656 315.238281 C 339.585938 315.238281 338.765625 314.417969 338.765625 312.78125 L 338.765625 215.40625 C 338.765625 209.675781 333.851562 205.585938 328.941406 205.585938 L 62.796875 205.585938 C 57.066406 205.585938 52.972656 210.496094 52.972656 215.40625 L 52.972656 750.574219 C 52.972656 756.300781 57.066406 760.394531 62.796875 760.394531 L 599.175781 760.394531 C 604.90625 760.394531 609.820312 756.300781 609.820312 750.574219 L 609.820312 482.988281 C 609.820312 480.535156 609 478.078125 606.546875 475.625 C 604.90625 473.988281 602.449219 473.167969 599.175781 473.167969 Z M 432.121094 492.808594 C 432.9375 493.625 432.9375 494.445312 432.9375 495.261719 C 432.9375 496.082031 432.9375 496.898438 432.121094 496.898438 C 408.371094 514.902344 404.277344 549.269531 422.292969 573.003906 C 423.113281 573.820312 423.929688 574.636719 423.929688 575.457031 C 414.105469 567.273438 401.820312 562.363281 388.71875 562.363281 C 364.152344 561.546875 354.324219 571.367188 344.5 583.640625 C 342.859375 586.09375 341.222656 583.640625 341.222656 582.003906 L 341.222656 492.808594 Z M 72.625 225.226562 L 319.933594 225.226562 C 319.933594 225.226562 319.933594 316.054688 319.933594 316.054688 C 321.570312 328.332031 333.035156 338.148438 345.316406 336.511719 C 351.050781 335.695312 356.78125 332.421875 360.875 328.332031 C 372.339844 313.601562 393.632812 311.144531 408.371094 321.785156 C 423.113281 333.238281 425.570312 354.515625 414.921875 369.246094 C 403.460938 383.976562 382.167969 386.429688 367.425781 375.792969 C 364.972656 374.15625 363.332031 371.699219 360.875 369.246094 C 352.6875 359.425781 337.949219 357.789062 328.121094 365.972656 C 323.207031 370.0625 319.933594 374.972656 319.933594 381.519531 C 319.933594 381.519531 319.933594 472.351562 319.933594 472.351562 L 229.035156 472.351562 C 228.214844 472.351562 228.214844 469.894531 229.851562 469.078125 C 242.957031 459.257812 251.144531 442.890625 251.144531 426.527344 C 251.144531 396.25 226.578125 372.519531 197.097656 372.519531 C 167.617188 372.519531 143.050781 397.066406 143.050781 426.527344 C 143.050781 442.890625 150.421875 459.257812 164.339844 469.078125 C 165.980469 469.894531 165.980469 473.167969 164.339844 473.167969 L 72.625 473.167969 Z M 588.53125 740.753906 L 341.222656 740.753906 L 341.222656 651.558594 C 341.222656 649.921875 343.679688 647.46875 345.316406 649.921875 C 363.332031 673.652344 389.539062 671.199219 389.539062 671.199219 C 419.835938 671.199219 443.585938 646.648438 443.585938 617.191406 C 443.585938 604.097656 438.671875 591.824219 430.484375 582.003906 C 440.308594 590.1875 452.59375 595.097656 465.695312 595.097656 C 495.996094 595.097656 519.742188 570.546875 519.742188 541.089844 C 519.742188 524.722656 512.371094 508.355469 498.449219 498.535156 C 497.632812 497.71875 497.632812 496.898438 497.632812 496.082031 C 497.632812 495.261719 498.449219 494.445312 499.269531 493.625 L 589.347656 493.625 Z M 588.53125 740.753906 " fill-opacity="1" fill-rule="nonzero"/></g></svg>