<svg xmlns="http://www.w3.org/2000/svg" xmlns:xlink="http://www.w3.org/1999/xlink" width="500" zoomAndPan="magnify" viewBox="0 0 375 374.999991" height="500" preserveAspectRatio="xMidYMid meet" version="1.0"><defs><clipPath id="2bdec694c1"><path d="M 22.789062 185 L 192 185 L 192 344.121094 L 22.789062 344.121094 Z M 22.789062 185 " clip-rule="nonzero"/></clipPath><clipPath id="2e75bddc8c"><path d="M 201 171 L 363.289062 171 L 363.289062 335 L 201 335 Z M 201 171 " clip-rule="nonzero"/></clipPath></defs><g clip-path="url(#2bdec694c1)"><path fill="#ffffff" d="M 184.558594 236.835938 C 184.554688 236.832031 184.554688 236.824219 184.550781 236.820312 C 176.390625 227.519531 166.300781 220.019531 156.542969 212.765625 C 155.25 211.804688 153.960938 210.84375 152.675781 209.882812 C 152.667969 209.878906 152.65625 209.878906 152.648438 209.875 C 152.632812 209.863281 152.617188 209.84375 152.597656 209.835938 C 139.160156 203.65625 126.042969 196.3125 112.496094 187.375 C 112.46875 187.355469 112.4375 187.339844 112.402344 187.328125 C 112.386719 187.324219 112.371094 187.320312 112.355469 187.3125 C 102.816406 184.851562 94.105469 185.179688 85.285156 185.773438 C 85.214844 185.777344 85.152344 185.796875 85.09375 185.832031 C 81.125 188.195312 77.085938 190.542969 73.113281 192.84375 L 72.390625 193.046875 C 72.367188 193.050781 72.355469 193.074219 72.335938 193.082031 C 72.296875 193.101562 72.25 193.113281 72.214844 193.144531 C 72.011719 193.332031 71.800781 193.53125 71.597656 193.722656 C 71.023438 194.054688 70.449219 194.382812 69.878906 194.714844 C 60.5 200.132812 50.800781 205.738281 41.496094 211.71875 C 41.488281 211.726562 41.484375 211.738281 41.476562 211.742188 C 41.4375 211.773438 41.40625 211.808594 41.375 211.847656 C 41.367188 211.863281 41.355469 211.878906 41.34375 211.894531 C 41.34375 211.902344 41.335938 211.90625 41.332031 211.914062 C 35.144531 226.445312 29.40625 241.433594 23.859375 255.929688 L 22.839844 258.589844 C 22.839844 258.59375 22.839844 258.597656 22.835938 258.601562 L 22.816406 258.660156 C 22.8125 258.664062 22.8125 258.667969 22.8125 258.671875 C 22.800781 258.703125 22.792969 258.734375 22.789062 258.773438 C 22.789062 258.78125 22.789062 258.792969 22.789062 258.804688 C 22.789062 258.824219 22.792969 258.84375 22.792969 258.863281 C 22.796875 258.878906 22.792969 258.890625 22.796875 258.90625 C 23.457031 261.855469 24.085938 264.816406 24.71875 267.78125 C 26.429688 275.808594 28.199219 284.109375 30.539062 292.109375 C 30.554688 292.15625 30.578125 292.203125 30.605469 292.242188 C 34.152344 297.085938 36.390625 298.28125 41.429688 300.234375 C 41.4375 300.238281 41.449219 300.234375 41.457031 300.234375 C 41.460938 300.238281 41.464844 300.238281 41.472656 300.242188 C 41.492188 300.246094 41.515625 300.253906 41.539062 300.257812 C 41.542969 300.257812 41.546875 300.261719 41.554688 300.261719 C 43 300.371094 44.457031 300.464844 45.929688 300.558594 C 53.742188 301.066406 61.824219 301.585938 69.195312 304.277344 C 73.109375 305.070312 76.019531 305.925781 78.691406 307.253906 C 81.902344 309.148438 85.109375 311.550781 88.414062 314.589844 C 88.417969 314.59375 88.421875 314.597656 88.425781 314.597656 C 93.804688 319.199219 99.1875 325.484375 105.417969 334.4375 C 112.78125 341.625 119.90625 343.378906 130.480469 344.097656 C 130.480469 344.097656 130.484375 344.097656 130.484375 344.097656 C 130.5 344.097656 130.511719 344.097656 130.523438 344.097656 C 130.527344 344.097656 130.53125 344.097656 130.535156 344.097656 C 130.539062 344.097656 130.539062 344.097656 130.539062 344.097656 L 130.542969 344.097656 C 130.546875 344.097656 130.546875 344.097656 130.546875 344.097656 C 130.546875 344.097656 130.546875 344.097656 130.550781 344.097656 C 130.550781 344.097656 130.554688 344.097656 130.554688 344.097656 C 130.554688 344.097656 130.554688 344.097656 130.554688 344.09375 C 130.558594 344.09375 130.558594 344.09375 130.5625 344.09375 C 130.566406 344.09375 130.566406 344.09375 130.566406 344.09375 C 130.566406 344.09375 130.566406 344.09375 130.570312 344.09375 C 130.570312 344.09375 130.574219 344.09375 130.574219 344.09375 C 130.585938 344.089844 130.59375 344.089844 130.605469 344.085938 C 130.605469 344.085938 130.609375 344.085938 130.609375 344.085938 C 130.609375 344.085938 130.609375 344.085938 130.613281 344.085938 C 130.613281 344.085938 130.613281 344.085938 130.613281 344.082031 C 130.617188 344.082031 130.617188 344.082031 130.617188 344.082031 C 130.621094 344.082031 130.621094 344.082031 130.621094 344.082031 C 130.621094 344.082031 130.621094 344.078125 130.625 344.078125 C 130.625 344.078125 130.628906 344.078125 130.632812 344.078125 C 130.667969 344.066406 130.703125 344.050781 130.738281 344.027344 C 135.878906 340.71875 141.03125 337.261719 146.015625 333.917969 C 155.042969 327.855469 164.378906 321.585938 173.957031 316.007812 C 173.960938 316.003906 173.960938 316 173.964844 315.996094 C 173.972656 315.992188 173.980469 315.992188 173.988281 315.988281 C 174.054688 315.941406 174.09375 315.875 174.128906 315.804688 C 174.128906 315.796875 174.140625 315.792969 174.144531 315.785156 C 179.242188 302.246094 185.078125 287.566406 191.972656 270.917969 C 191.980469 270.90625 191.976562 270.894531 191.980469 270.882812 C 191.992188 270.847656 192 270.8125 192 270.777344 C 192.003906 270.757812 192 270.738281 192 270.714844 C 191.996094 270.699219 192 270.683594 191.996094 270.667969 C 191.535156 268.472656 191.082031 266.277344 190.625 264.082031 C 188.777344 255.179688 186.867188 245.972656 184.644531 236.996094 C 184.628906 236.9375 184.597656 236.882812 184.558594 236.835938 Z M 72.101562 194.421875 C 72.128906 194.40625 72.15625 194.390625 72.183594 194.375 C 73.210938 202.800781 74.203125 205.496094 75.550781 209.179688 C 75.863281 210.023438 76.191406 210.921875 76.546875 211.957031 L 76.179688 212.101562 C 65.570312 216.253906 54.613281 220.542969 43.265625 223.128906 C 52.992188 212.40625 63.230469 202.648438 72.101562 194.421875 Z M 154.335938 216.613281 C 155.378906 219.21875 156.296875 221.507812 157.230469 225.433594 C 146.433594 216.046875 135.089844 208.324219 121.046875 200.832031 C 124.335938 201.871094 127.609375 202.957031 130.808594 204.015625 C 137.722656 206.300781 144.875 208.664062 152.082031 210.578125 C 152.925781 213.089844 153.671875 214.964844 154.335938 216.613281 Z M 153.035156 309.304688 C 147.894531 308.855469 142.566406 308.789062 137.410156 308.722656 C 129.386719 308.621094 121.097656 308.519531 113.300781 306.96875 C 115.277344 303.261719 117.238281 299.433594 119.136719 295.722656 C 126.167969 281.976562 133.433594 267.777344 143.46875 255.996094 C 144.546875 261.988281 145.59375 267.980469 146.640625 273.976562 C 148.664062 285.566406 150.753906 297.546875 153.035156 309.304688 Z M 118.371094 295.332031 C 116.558594 298.875 114.6875 302.523438 112.800781 306.070312 L 112.015625 302.796875 C 107.167969 282.613281 102.152344 261.75 93.867188 242.371094 C 115.261719 236.019531 125.914062 241.675781 143.117188 255.097656 C 132.859375 267.019531 125.492188 281.410156 118.371094 295.332031 Z M 77.125 212.800781 C 86.261719 220.578125 89.183594 229.003906 92.753906 241.789062 C 83.015625 244.433594 73.789062 248.933594 64.847656 253.304688 C 58.304688 256.5 51.554688 259.796875 44.65625 262.335938 C 45.816406 260.296875 46.972656 258.242188 48.132812 256.183594 C 56.609375 241.128906 65.371094 225.566406 77.125 212.800781 Z M 111.179688 302.996094 L 111.941406 306.167969 C 98.863281 295.910156 88.792969 290.632812 71.847656 290.484375 C 77.457031 279.671875 82.375 268.277344 87.128906 257.253906 C 89.128906 252.621094 91.1875 247.84375 93.277344 243.164062 C 101.414062 262.351562 106.378906 283.007812 111.179688 302.996094 Z M 121.230469 208.820312 C 132.527344 217.371094 137.105469 233.488281 141.148438 247.714844 C 141.757812 249.855469 142.339844 251.898438 142.925781 253.859375 C 126.191406 240.875 115.488281 235.371094 94.710938 241.226562 C 94.523438 241.28125 94.332031 241.335938 94.140625 241.390625 C 94.894531 239.9375 95.652344 238.421875 96.449219 236.828125 C 101.96875 225.785156 108.835938 212.027344 121.230469 208.820312 Z M 143.785156 253.71875 C 143.1875 251.730469 142.597656 249.660156 141.976562 247.480469 C 138.089844 233.808594 133.710938 218.414062 123.351562 209.441406 C 131.546875 212.09375 139.050781 216.425781 146.324219 220.648438 C 149.890625 222.71875 153.574219 224.851562 157.3125 226.777344 C 151.363281 235.121094 147.605469 243.945312 143.785156 253.71875 Z M 157.945312 227.359375 C 165.414062 237.875 170.179688 250.886719 174.789062 263.476562 C 176.140625 267.167969 177.421875 270.667969 178.765625 274.105469 C 168.085938 270.609375 158.398438 264.199219 149.019531 257.996094 C 147.425781 256.941406 145.84375 255.890625 144.261719 254.863281 C 148.160156 244.847656 151.917969 235.835938 157.945312 227.359375 Z M 154.8125 224.480469 C 152.082031 222.996094 149.386719 221.429688 146.753906 219.90625 C 138.875 215.332031 130.726562 210.605469 121.675781 208.015625 C 120.945312 205.226562 120.175781 204.207031 119.363281 203.144531 C 118.765625 202.359375 118.152344 201.546875 117.472656 199.929688 C 132.109375 207.488281 143.808594 215.171875 154.8125 224.480469 Z M 118.679688 203.664062 C 119.40625 204.617188 120.042969 205.453125 120.675781 207.609375 C 110.144531 203.277344 98.753906 205.527344 88.1875 208.507812 C 86.265625 209.046875 84.367188 209.613281 82.511719 210.171875 C 81.632812 210.433594 80.757812 210.691406 79.890625 210.949219 C 90.757812 204.195312 102.542969 198.207031 116.34375 199.425781 C 117.203125 201.730469 117.988281 202.757812 118.679688 203.664062 Z M 82.757812 210.992188 C 95.160156 207.289062 107.972656 203.464844 120.023438 208.273438 C 107.847656 212.054688 101.132812 225.535156 95.679688 236.441406 C 94.894531 238.011719 94.148438 239.496094 93.40625 240.925781 C 89.910156 228.476562 86.898438 220.128906 77.960938 212.402344 C 79.539062 211.945312 81.136719 211.476562 82.757812 210.992188 Z M 49.8125 222.34375 C 58.632812 219.855469 67.199219 216.539062 75.550781 213.269531 C 64.207031 225.90625 55.65625 241.070312 47.382812 255.761719 C 46.285156 257.714844 45.1875 259.652344 44.089844 261.585938 C 43.75 249.03125 43.214844 236.457031 42.496094 224.175781 C 44.953125 223.640625 47.394531 223.027344 49.8125 222.34375 Z M 27.28125 252.074219 C 31.949219 243.28125 36.769531 234.199219 41.703125 225.335938 C 42.410156 237.609375 42.9375 250.164062 43.261719 262.691406 C 35.597656 262.421875 31.527344 261.746094 23.816406 258.597656 C 24.972656 256.425781 26.125 254.25 27.28125 252.074219 Z M 41.613281 223.734375 C 36.441406 232.980469 31.398438 242.484375 26.523438 251.671875 C 26.386719 251.925781 26.25 252.179688 26.117188 252.433594 C 30.976562 239.753906 35.996094 226.769531 41.347656 214.09375 C 41.40625 216.453125 41.457031 218.242188 41.519531 220.347656 Z M 25.90625 267.65625 C 25.21875 264.726562 24.5625 261.964844 23.867188 259.542969 C 31.441406 262.605469 35.582031 263.277344 43.214844 263.546875 C 42.933594 265.789062 42.605469 268.089844 42.285156 270.328125 C 40.917969 279.800781 39.519531 289.585938 41.015625 299.003906 C 31.929688 293.378906 28.597656 279.152344 25.90625 267.65625 Z M 43.136719 270.449219 C 43.425781 268.425781 43.726562 266.34375 43.992188 264.304688 C 51.371094 274.839844 59.007812 281.847656 70.191406 290.710938 C 64.902344 292.085938 59.640625 293.777344 54.542969 295.414062 C 50.421875 296.738281 46.167969 298.09375 41.925781 299.296875 C 40.335938 289.878906 41.757812 280.003906 43.136719 270.449219 Z M 44.378906 263.347656 C 51.515625 260.765625 58.484375 257.367188 65.226562 254.074219 C 73.988281 249.792969 83.03125 245.394531 92.519531 242.761719 C 90.417969 247.460938 88.347656 252.257812 86.339844 256.910156 C 81.566406 267.976562 76.628906 279.414062 70.996094 290.246094 C 59.570312 281.207031 51.855469 274.136719 44.378906 263.347656 Z M 111.863281 307.203125 L 111.378906 307.453125 C 104.152344 311.226562 97.328125 314.789062 88.949219 313.863281 C 83.691406 305.527344 78.601562 298.730469 72.09375 291.351562 C 88.832031 291.550781 98.785156 296.882812 111.863281 307.203125 Z M 111.777344 308.214844 L 112.429688 307.875 C 113.304688 310.046875 114.148438 312.25 115.042969 314.570312 C 118.894531 324.597656 122.871094 334.960938 129.476562 343.101562 C 118.570312 341.460938 110.273438 333.359375 102.242188 325.519531 C 98.394531 321.761719 94.425781 317.890625 90.25 314.839844 C 98.246094 315.28125 104.832031 311.84375 111.777344 308.214844 Z M 130.488281 342.980469 C 123.761719 334.882812 119.738281 324.402344 115.84375 314.261719 C 114.988281 312.039062 114.175781 309.925781 113.339844 307.839844 C 121.15625 309.363281 129.40625 309.480469 137.398438 309.582031 C 142.484375 309.644531 147.730469 309.722656 152.789062 310.160156 C 150.046875 314.15625 147.347656 318.253906 144.730469 322.226562 C 140.191406 329.121094 135.5 336.246094 130.488281 342.980469 Z M 147.484375 273.828125 C 146.445312 267.863281 145.402344 261.898438 144.332031 255.941406 C 145.730469 256.855469 147.136719 257.777344 148.546875 258.710938 C 158.042969 264.996094 167.855469 271.480469 178.742188 274.992188 C 168.753906 285.917969 160.546875 298.050781 153.785156 308.644531 C 151.542969 297.054688 149.480469 285.253906 147.484375 273.828125 Z M 178.878906 276.105469 C 177.046875 289.019531 175.234375 301.933594 173.417969 314.847656 L 173.382812 315.125 C 165.683594 313.511719 161.675781 312.273438 154.214844 309.566406 C 160.898438 299.070312 169.011719 287 178.878906 276.105469 Z M 179.882812 275.140625 C 181.464844 274.777344 182.804688 274.453125 184.058594 274.101562 C 186.210938 273.496094 188.144531 272.789062 190.765625 271.605469 C 184.648438 286.394531 179.375 299.625 174.703125 311.894531 C 176.425781 299.640625 178.144531 287.390625 179.882812 275.140625 Z M 179.285156 273.058594 C 178.046875 269.863281 176.851562 266.605469 175.597656 263.179688 C 171.121094 250.964844 166.5 238.355469 159.394531 227.949219 C 166.925781 232.265625 174.726562 236.664062 183.75 237.488281 C 182.453125 248.390625 181.03125 259.453125 179.660156 270.160156 Z M 156.03125 213.457031 C 165.464844 220.46875 175.210938 227.714844 183.183594 236.574219 C 174.480469 235.609375 166.867188 231.242188 159.492188 227.011719 L 158.324219 226.34375 C 157.285156 221.660156 156.285156 219.167969 155.132812 216.292969 C 154.574219 214.902344 153.957031 213.359375 153.273438 211.402344 C 154.191406 212.085938 155.109375 212.773438 156.03125 213.457031 Z M 112.90625 188.675781 C 124.628906 196.359375 136.046875 202.859375 147.644531 208.453125 C 142.039062 206.824219 136.488281 204.988281 131.078125 203.199219 C 126.457031 201.667969 121.679688 200.089844 116.921875 198.652344 C 115.113281 195.988281 114.175781 194.179688 112.90625 188.675781 Z M 85.441406 186.621094 C 92.035156 186.179688 98.566406 185.894531 105.414062 186.828125 C 95.546875 186.753906 86.167969 189.1875 76.4375 191.910156 C 79.441406 190.167969 82.460938 188.398438 85.441406 186.621094 Z M 111.898438 188.117188 C 113.132812 193.664062 114.035156 195.78125 115.59375 198.203125 C 105.089844 194.730469 93.949219 194.183594 83.164062 193.65625 C 80.480469 193.523438 77.726562 193.386719 74.992188 193.207031 C 87.390625 189.722656 99.136719 186.496094 111.898438 188.117188 Z M 83.121094 194.511719 C 93.175781 195.007812 103.539062 195.523438 113.359375 198.417969 C 99.730469 198.214844 88.097656 204.710938 77.316406 211.554688 C 76.976562 210.570312 76.660156 209.699219 76.359375 208.886719 C 75.011719 205.207031 74.027344 202.511719 72.996094 193.929688 C 76.363281 194.179688 79.796875 194.351562 83.121094 194.511719 Z M 42.445312 222.769531 L 42.375 220.324219 C 42.300781 217.722656 42.242188 215.617188 42.160156 212.3125 C 50.882812 206.714844 59.945312 201.453125 68.765625 196.351562 C 60.496094 204.082031 51.257812 213.03125 42.445312 222.769531 Z M 31.339844 291.796875 C 30.300781 288.226562 29.367188 284.597656 28.507812 280.957031 C 30.628906 287.601562 33.519531 293.855469 38.050781 297.863281 C 35.652344 296.660156 33.785156 295.121094 31.339844 291.796875 Z M 69.425781 303.453125 C 66.253906 302.292969 62.953125 301.535156 59.597656 301.003906 C 63.996094 301.550781 68.113281 302.488281 72.128906 304.054688 C 71.277344 303.84375 70.378906 303.648438 69.425781 303.453125 Z M 79.34375 306.636719 C 68.832031 300.34375 58.355469 299.4375 44.632812 299.402344 C 48.0625 298.390625 51.476562 297.300781 54.804688 296.230469 C 60.078125 294.539062 65.527344 292.789062 70.992188 291.394531 C 77 298.164062 81.78125 304.398438 86.566406 311.738281 C 83.992188 309.476562 81.75 307.867188 79.34375 306.636719 Z M 106.066406 333.886719 C 102.210938 328.335938 98.660156 323.792969 95.226562 320.039062 C 97.359375 321.957031 99.46875 324.015625 101.640625 326.132812 C 108.367188 332.703125 115.285156 339.441406 123.804688 342.527344 C 116.914062 341.453125 111.53125 339.210938 106.066406 333.886719 Z M 145.535156 333.207031 C 141.199219 336.117188 136.734375 339.117188 132.261719 342.023438 C 136.882812 335.710938 141.230469 329.105469 145.449219 322.699219 C 148.136719 318.617188 150.914062 314.398438 153.734375 310.304688 C 161.140625 313 165.175781 314.257812 172.574219 315.832031 C 163.308594 321.28125 154.277344 327.339844 145.535156 333.207031 Z M 189.785156 264.261719 C 190.21875 266.347656 190.652344 268.429688 191.089844 270.511719 C 186.667969 272.554688 184.371094 273.222656 180.003906 274.230469 L 180.511719 270.269531 C 181.804688 260.191406 183.140625 249.792969 184.375 239.511719 C 186.359375 247.738281 188.097656 256.125 189.785156 264.261719 Z M 189.785156 264.261719 " fill-opacity="1" fill-rule="nonzero"/></g><path fill="#ffffff" d="M 232.699219 96.109375 C 232.695312 96.085938 232.6875 96.070312 232.679688 96.046875 C 232.675781 96.035156 232.675781 96.023438 232.671875 96.011719 C 231.429688 93.28125 230.207031 90.53125 228.988281 87.777344 C 225.65625 80.269531 222.210938 72.503906 218.273438 65.152344 C 218.246094 65.109375 218.21875 65.070312 218.179688 65.039062 C 213.527344 60.859375 210.933594 60.28125 205.96875 59.460938 C 205.953125 59.457031 205.933594 59.464844 205.917969 59.464844 C 205.898438 59.460938 205.878906 59.457031 205.855469 59.460938 C 205.851562 59.460938 205.847656 59.457031 205.84375 59.457031 C 195.320312 60.78125 187.207031 61.382812 176.855469 60.546875 C 167.734375 60.28125 160.324219 56.421875 152.488281 52.34375 C 142.804688 46.863281 134.113281 39.683594 126.660156 33.339844 C 118.082031 28.363281 106.851562 23.09375 95.960938 26.578125 C 95.960938 26.578125 95.960938 26.578125 95.957031 26.578125 C 95.957031 26.582031 95.953125 26.582031 95.949219 26.582031 C 95.949219 26.582031 95.945312 26.582031 95.945312 26.582031 C 95.945312 26.582031 95.945312 26.582031 95.945312 26.585938 C 95.90625 26.597656 95.867188 26.621094 95.832031 26.644531 C 95.832031 26.644531 95.832031 26.648438 95.832031 26.648438 C 95.832031 26.648438 95.832031 26.648438 95.828125 26.648438 C 95.832031 26.648438 95.832031 26.648438 95.828125 26.648438 C 95.828125 26.648438 95.828125 26.652344 95.824219 26.652344 C 95.824219 26.65625 95.824219 26.652344 95.824219 26.652344 C 95.824219 26.652344 95.820312 26.65625 95.820312 26.65625 C 95.820312 26.65625 95.816406 26.660156 95.816406 26.660156 C 95.8125 26.660156 95.8125 26.660156 95.8125 26.664062 C 95.808594 26.667969 95.800781 26.671875 95.796875 26.675781 C 95.792969 26.679688 95.792969 26.679688 95.789062 26.683594 C 95.789062 26.683594 95.789062 26.683594 95.789062 26.6875 C 95.785156 26.6875 95.785156 26.6875 95.785156 26.6875 C 95.785156 26.691406 95.785156 26.691406 95.785156 26.691406 C 86.992188 35.949219 85.410156 50.421875 84.015625 63.195312 C 83.507812 67.824219 83.03125 72.199219 82.257812 76.230469 C 82.253906 76.261719 82.25 76.289062 82.25 76.320312 C 82.636719 93.769531 80.90625 108.289062 71.199219 122.429688 C 71.195312 122.4375 71.195312 122.445312 71.191406 122.449219 C 71.179688 122.464844 71.179688 122.484375 71.171875 122.5 C 71.148438 122.546875 71.136719 122.59375 71.132812 122.640625 C 71.132812 122.652344 71.125 122.660156 71.125 122.671875 C 71.109375 133.230469 75.023438 142.167969 78.808594 150.804688 C 78.835938 150.871094 78.882812 150.921875 78.9375 150.964844 C 78.941406 150.96875 78.941406 150.976562 78.949219 150.980469 C 86.816406 156.71875 95.585938 161.441406 104.0625 166.011719 C 108.1875 168.230469 112.453125 170.527344 116.539062 172.902344 C 116.546875 172.90625 116.558594 172.90625 116.566406 172.914062 C 116.578125 172.917969 116.585938 172.925781 116.597656 172.933594 C 134.101562 179.679688 149.578125 191.09375 164.542969 202.132812 L 167.796875 204.527344 C 167.8125 204.539062 167.828125 204.550781 167.84375 204.5625 C 167.855469 204.566406 167.863281 204.570312 167.875 204.578125 C 179.414062 210.1875 189.035156 211.800781 197.226562 209.492188 C 197.621094 209.378906 198.015625 209.257812 198.402344 209.128906 C 198.464844 209.109375 198.523438 209.074219 198.570312 209.027344 C 210.351562 197.332031 217.113281 181.117188 223.652344 165.433594 C 225.136719 161.875 226.539062 158.511719 228.003906 155.1875 C 228.023438 155.140625 228.035156 155.085938 228.039062 155.035156 C 228.039062 155.035156 228.039062 155.03125 228.039062 155.027344 C 228.785156 131.660156 230.226562 113.53125 232.710938 96.25 C 232.710938 96.238281 232.707031 96.226562 232.707031 96.214844 C 232.710938 96.191406 232.710938 96.171875 232.710938 96.148438 C 232.703125 96.136719 232.699219 96.125 232.699219 96.109375 Z M 117.039062 172.171875 C 115.800781 170.046875 114.75 168.40625 113.734375 166.820312 C 111.910156 163.96875 110.308594 161.464844 108.289062 157.132812 C 119.289062 164.605469 130.574219 171.988281 141.503906 179.132812 C 146.011719 182.082031 150.632812 185.101562 155.234375 188.128906 C 153.273438 187.21875 151.328125 186.308594 149.417969 185.410156 C 139.070312 180.554688 128.371094 175.535156 117.039062 172.171875 Z M 91.894531 72.144531 L 91.890625 73.636719 C 91.835938 87.347656 91.777344 102.8125 83.527344 114.523438 C 85.925781 101.667969 84.777344 88.679688 83.136719 76.5 C 86.234375 74.113281 87.808594 73.035156 91.894531 72.144531 Z M 92.746094 73.738281 C 95.6875 80.761719 98.609375 87.882812 101.445312 94.792969 C 105.28125 104.144531 109.246094 113.800781 113.273438 123.273438 L 113.199219 123.246094 C 103.695312 119.675781 93.871094 116 83.5625 115.890625 C 92.589844 103.882812 92.695312 87.898438 92.746094 73.738281 Z M 210.378906 88.449219 C 210.515625 90.648438 210.660156 92.910156 210.839844 95.117188 C 201.480469 85.9375 191.667969 80.816406 180.355469 74.917969 L 178.515625 73.957031 C 185.996094 71.007812 193.164062 67.167969 200.105469 63.453125 C 201.960938 62.457031 203.816406 61.464844 205.679688 60.484375 C 209.160156 69.179688 209.777344 78.972656 210.378906 88.449219 Z M 223.433594 138.453125 C 218.898438 123.332031 215.117188 109.613281 211.894531 96.589844 C 219.679688 95.238281 223.824219 95.046875 231.738281 96.527344 C 227.988281 109.628906 225.667969 122.859375 223.433594 138.453125 Z M 179.957031 75.679688 C 191.386719 81.640625 201.277344 86.808594 210.675781 96.175781 C 204.175781 100.261719 197.96875 104.90625 191.964844 109.402344 C 184.191406 115.222656 176.15625 121.222656 167.464844 126.027344 C 168.296875 121.492188 169.074219 116.859375 169.820312 112.363281 C 171.917969 99.796875 174.089844 86.8125 177.746094 74.523438 Z M 155.820312 182.707031 C 153.6875 179.300781 151.667969 176.078125 149.132812 170.558594 C 162.785156 174.164062 174.1875 174.554688 193.535156 166.859375 C 186.179688 179.382812 177 194.714844 160.386719 190.453125 C 158.71875 187.332031 157.246094 184.980469 155.820312 182.707031 Z M 148.347656 169.34375 C 133.683594 157.53125 124.21875 141.039062 115.113281 125.019531 C 135.175781 134.703125 147.097656 137.144531 166.222656 127.664062 C 165.820312 129.203125 165.421875 130.800781 165.011719 132.433594 C 161.714844 145.605469 157.984375 160.515625 148.347656 169.34375 Z M 114.574219 123.800781 C 118.347656 111.996094 120.074219 99.316406 121.734375 87.046875 C 122.824219 79.007812 123.953125 70.710938 125.648438 62.765625 C 138.019531 84.117188 150.839844 106.144531 166.230469 126.695312 C 146.910156 136.382812 135.054688 133.785156 114.574219 123.800781 Z M 126.574219 62.652344 C 140.835938 70.113281 158.324219 78.855469 176.851562 74.496094 C 173.21875 86.769531 171.058594 99.707031 168.972656 112.222656 C 168.226562 116.691406 167.460938 121.300781 166.632812 125.808594 C 151.476562 105.507812 138.804688 83.753906 126.574219 62.652344 Z M 120.882812 86.933594 C 119.261719 98.90625 117.585938 111.273438 114 122.789062 C 109.996094 113.371094 106.058594 103.765625 102.242188 94.464844 C 99.183594 87.011719 96.019531 79.304688 92.847656 71.742188 C 102.429688 63.910156 112.628906 62.148438 124.925781 62.015625 C 123.152344 70.167969 122 78.6875 120.882812 86.933594 Z M 83.34375 116.738281 C 93.578125 116.796875 103.398438 120.484375 112.898438 124.050781 L 113.601562 124.316406 C 112.710938 135.621094 110.8125 144.617188 107.097656 155.09375 C 95.925781 142.496094 88.359375 130.277344 83.34375 116.738281 Z M 114.371094 125.445312 C 123.308594 141.175781 132.609375 157.347656 146.84375 169.195312 C 138.15625 167.644531 129.921875 164.304688 121.957031 161.046875 C 117.363281 159.171875 112.617188 157.238281 107.808594 155.652344 C 111.492188 145.320312 113.429688 136.433594 114.371094 125.445312 Z M 149.210938 169.683594 C 158.824219 160.628906 162.71875 145.144531 165.847656 132.644531 C 166.242188 131.0625 166.628906 129.53125 167.019531 128.035156 C 175.125 143.542969 185.0625 155.816406 193.824219 165.820312 C 178.675781 171.941406 166.90625 174.34375 149.210938 169.683594 Z M 167.453125 127.03125 C 176.363281 122.15625 184.554688 116.023438 192.476562 110.089844 C 198.320312 105.71875 204.351562 101.199219 210.644531 97.207031 C 206.195312 113.011719 202.515625 129.222656 198.957031 144.914062 C 197.457031 151.527344 195.910156 158.355469 194.320312 165.082031 C 185.511719 155.015625 175.527344 142.660156 167.453125 127.03125 Z M 126.308594 61.542969 C 136.121094 55.121094 140.449219 53.734375 152.101562 53.160156 C 158.808594 60.351562 166.789062 67.082031 176.4375 73.699219 C 159.390625 77.632812 143.605469 70.578125 126.308594 61.542969 Z M 150.667969 52.375 C 139.84375 53.015625 135.230469 54.648438 125.554688 61.003906 C 123.644531 58.507812 121.707031 55.867188 119.828125 53.3125 C 113.023438 44.046875 105.992188 34.476562 97.230469 27.347656 C 110.277344 26.800781 124.433594 35.9375 136.96875 44.027344 C 141.800781 47.148438 146.394531 50.109375 150.667969 52.375 Z M 96.296875 27.699219 C 105.15625 34.789062 112.261719 44.460938 119.136719 53.824219 C 120.925781 56.261719 122.769531 58.769531 124.601562 61.167969 C 112.457031 61.328125 102.3125 63.117188 92.75 70.738281 C 92.738281 68.621094 92.707031 66.488281 92.671875 64.339844 C 92.476562 52.003906 92.269531 39.261719 96.296875 27.699219 Z M 82.84375 117.820312 C 87.796875 130.890625 95.148438 142.761719 105.828125 154.941406 C 97.496094 151.894531 88.882812 148.824219 79.605469 150.152344 C 78.851562 138.1875 80.582031 128.339844 82.84375 117.820312 Z M 141.972656 178.414062 C 131.5 171.570312 120.695312 164.507812 110.136719 157.355469 C 114.03125 158.738281 117.878906 160.3125 121.628906 161.84375 C 130.058594 165.289062 138.773438 168.84375 148.066406 170.289062 C 150.757812 176.242188 152.863281 179.609375 155.089844 183.164062 C 156.296875 185.082031 157.535156 187.066406 158.894531 189.511719 C 153.25 185.785156 147.527344 182.042969 141.972656 178.414062 Z M 171.148438 191.292969 C 181.976562 188.242188 189 176.28125 194.476562 166.957031 L 194.515625 166.890625 C 198.742188 175.28125 203.875 185.566406 207.621094 195.984375 C 191.640625 202.203125 177.136719 197.742188 163.601562 191.898438 C 166.308594 192.183594 168.816406 191.949219 171.148438 191.292969 Z M 195.082031 166.101562 C 201.285156 160.941406 207.371094 155.484375 213.257812 150.203125 C 216.375 147.40625 219.589844 144.523438 222.800781 141.703125 C 221.484375 146.609375 220.199219 151.582031 218.949219 156.402344 C 215.664062 169.09375 212.273438 182.207031 208.148438 194.914062 C 204.351562 184.554688 199.25 174.382812 195.082031 166.101562 Z M 212.683594 149.5625 C 207.035156 154.632812 201.199219 159.855469 195.261719 164.824219 C 196.816406 158.242188 198.332031 151.570312 199.796875 145.101562 C 203.316406 129.585938 206.960938 113.558594 211.34375 97.929688 C 214.625 111.089844 218.46875 124.972656 223.09375 140.304688 C 219.589844 143.367188 216.082031 146.515625 212.683594 149.5625 Z M 225.292969 145.003906 L 224.019531 140.417969 C 226 126.433594 228.003906 114.386719 230.964844 102.707031 C 229.105469 117.371094 227.945312 133.015625 227.273438 152.164062 C 226.546875 149.511719 225.964844 147.410156 225.292969 145.003906 Z M 217.550781 65.628906 C 219.289062 68.875 220.933594 72.207031 222.515625 75.5625 C 219.082031 69.53125 214.984375 64.050781 209.757812 61.082031 C 212.382812 61.765625 214.464844 62.863281 217.550781 65.628906 Z M 227.84375 88.121094 C 229.113281 90.835938 230.316406 93.394531 231.488281 95.609375 C 223.722656 94.1875 219.507812 94.398438 211.757812 95.742188 C 211.550781 93.324219 211.390625 90.824219 211.234375 88.394531 C 210.640625 79 210.019531 69.300781 206.632812 60.582031 C 216.660156 64.207031 222.847656 77.433594 227.84375 88.121094 Z M 176.808594 61.40625 C 182.59375 61.875 187.6875 61.894531 192.886719 61.589844 C 186.878906 62.246094 181.300781 62.257812 175.71875 61.355469 C 176.078125 61.378906 176.441406 61.394531 176.808594 61.40625 Z M 203.121094 60.875 C 201.980469 61.480469 200.839844 62.082031 199.699219 62.695312 C 192.574219 66.511719 185.207031 70.453125 177.53125 73.414062 C 168.566406 67.3125 161.046875 61.128906 154.644531 54.578125 C 171.769531 64.097656 184.957031 64.355469 203.121094 60.875 Z M 126.167969 34.039062 C 129.78125 37.121094 133.710938 40.410156 137.914062 43.613281 C 137.753906 43.507812 137.59375 43.40625 137.433594 43.304688 C 125.726562 35.75 112.617188 27.292969 100.164062 26.523438 C 109.472656 25.308594 118.84375 29.796875 126.167969 34.039062 Z M 84.867188 63.289062 C 86.234375 50.796875 87.640625 37.898438 95 28.882812 C 91.425781 40.1875 91.625 52.460938 91.8125 64.351562 C 91.851562 66.675781 91.886719 68.984375 91.894531 71.269531 C 87.992188 72.097656 86.242188 73.070312 83.289062 75.304688 C 83.953125 71.546875 84.40625 67.53125 84.867188 63.289062 Z M 83.109375 83.296875 C 84.273438 93.953125 84.664062 105.070312 82.347656 116.03125 C 81.261719 116.640625 80.296875 117.167969 79.382812 117.671875 C 77.347656 118.789062 75.535156 119.789062 72.980469 121.3125 C 78.121094 113.402344 82.636719 102.964844 83.109375 83.296875 Z M 71.984375 122.917969 C 75.335938 120.875 77.40625 119.738281 79.792969 118.425781 C 80.527344 118.023438 81.28125 117.609375 82.105469 117.148438 C 79.902344 127.347656 78.160156 136.882812 78.640625 148.28125 C 75.121094 140.1875 72.019531 132.339844 71.984375 122.917969 Z M 104.46875 165.253906 C 96.324219 160.867188 87.914062 156.339844 80.320312 150.914062 C 89.289062 149.8125 97.71875 152.890625 105.878906 155.875 L 106.941406 156.261719 C 109.261719 161.429688 111 164.144531 113.011719 167.285156 C 113.808594 168.535156 114.632812 169.816406 115.550781 171.34375 C 111.890625 169.253906 108.125 167.222656 104.46875 165.253906 Z M 165.050781 201.441406 C 152.65625 192.300781 139.914062 182.902344 125.933594 176.082031 C 133.890625 179.070312 141.5625 182.671875 149.050781 186.191406 C 152.5625 187.835938 156.191406 189.542969 159.820312 191.167969 C 163.011719 195.460938 164.617188 197.820312 166.972656 202.855469 Z M 161.414062 191.878906 C 175.089844 197.9375 189.75 203.007812 205.976562 197.503906 C 193.707031 207.445312 184.859375 208.824219 168.367188 203.835938 C 165.890625 198.359375 164.257812 195.761719 161.414062 191.878906 Z M 198.03125 208.347656 C 191.058594 210.640625 182.96875 209.914062 173.425781 206.105469 C 186.882812 209.304688 195.234375 207.246094 206.257812 198.386719 C 203.796875 201.957031 201.082031 205.308594 198.03125 208.347656 Z M 222.855469 165.109375 C 218.890625 174.613281 214.832031 184.304688 209.640625 193.054688 C 213.46875 180.988281 216.675781 168.621094 219.785156 156.617188 C 221.019531 151.847656 222.289062 146.933594 223.589844 142.082031 L 224.46875 145.234375 C 225.339844 148.371094 226.066406 150.984375 227.152344 154.984375 C 225.707031 158.273438 224.320312 161.59375 222.855469 165.109375 Z M 222.855469 165.109375 " fill-opacity="1" fill-rule="nonzero"/><g clip-path="url(#2e75bddc8c)"><path fill="#ffffff" d="M 357.109375 216.085938 C 357.105469 216.070312 357.097656 216.0625 357.09375 216.046875 C 357.085938 216.011719 357.074219 215.980469 357.054688 215.949219 C 357.046875 215.929688 357.035156 215.914062 357.023438 215.898438 C 357.015625 215.886719 357.007812 215.871094 356.996094 215.859375 C 347.078125 205.320312 336.464844 193.628906 324.550781 180.113281 C 324.539062 180.101562 324.53125 180.097656 324.519531 180.089844 C 324.492188 180.066406 324.464844 180.042969 324.433594 180.023438 C 324.414062 180.015625 324.398438 180.007812 324.378906 180 C 324.363281 179.996094 324.347656 179.984375 324.332031 179.980469 C 313.441406 177.214844 302.707031 174.535156 290.808594 171.570312 C 290.75 171.558594 290.691406 171.558594 290.632812 171.566406 C 290.628906 171.570312 290.625 171.566406 290.621094 171.566406 C 276.082031 174.445312 262.855469 177.703125 250.171875 181.535156 C 250.121094 181.550781 250.074219 181.574219 250.03125 181.609375 C 242.296875 187.765625 234.492188 194.09375 226.945312 200.21875 C 222.410156 203.894531 217.875 207.574219 213.328125 211.238281 C 213.285156 211.269531 213.25 211.308594 213.222656 211.355469 C 213.222656 211.355469 213.222656 211.355469 213.222656 211.359375 C 213.21875 211.367188 213.214844 211.371094 213.210938 211.382812 C 208.363281 220.742188 204.539062 229.371094 201.167969 238.535156 C 201.148438 238.59375 201.140625 238.65625 201.144531 238.71875 C 201.523438 243.324219 201.855469 247.988281 202.175781 252.570312 C 202.128906 252.8125 202.085938 253.054688 202.039062 253.300781 C 202.035156 253.324219 202.046875 253.34375 202.046875 253.363281 C 202.046875 253.410156 202.035156 253.457031 202.050781 253.503906 C 202.128906 253.773438 202.214844 254.046875 202.296875 254.320312 C 202.339844 254.976562 202.386719 255.632812 202.429688 256.285156 C 203.175781 267.097656 203.941406 278.277344 205.222656 289.265625 C 205.222656 289.277344 205.230469 289.285156 205.230469 289.296875 C 205.242188 289.34375 205.261719 289.386719 205.285156 289.429688 C 205.292969 289.449219 205.300781 289.464844 205.3125 289.480469 C 205.316406 289.488281 205.316406 289.492188 205.324219 289.5 C 215.636719 301.433594 226.558594 313.160156 237.121094 324.503906 L 239.15625 326.691406 C 239.164062 326.699219 239.171875 326.699219 239.179688 326.707031 C 239.199219 326.722656 239.21875 326.742188 239.238281 326.757812 C 239.261719 326.769531 239.28125 326.777344 239.304688 326.785156 C 239.320312 326.792969 239.328125 326.800781 239.339844 326.800781 C 239.347656 326.804688 239.355469 326.8125 239.363281 326.8125 C 239.367188 326.8125 239.367188 326.816406 239.371094 326.816406 C 242.304688 327.519531 245.238281 328.253906 248.171875 328.988281 C 256.136719 330.984375 264.371094 333.042969 272.585938 334.457031 C 272.636719 334.464844 272.6875 334.464844 272.738281 334.457031 C 273.914062 334.246094 274.941406 334.019531 275.859375 333.761719 C 279.542969 332.722656 281.496094 331.183594 284.671875 328.246094 C 284.6875 328.234375 284.691406 328.21875 284.707031 328.203125 C 284.71875 328.191406 284.730469 328.179688 284.742188 328.160156 C 284.746094 328.15625 284.75 328.15625 284.753906 328.148438 C 285.484375 326.898438 286.214844 325.625 286.945312 324.34375 C 290.835938 317.546875 294.855469 310.519531 300.511719 305.082031 C 302.945312 301.917969 304.992188 299.679688 307.359375 297.859375 C 310.472656 295.808594 314.039062 293.984375 318.21875 292.351562 C 318.226562 292.351562 318.230469 292.347656 318.234375 292.34375 C 324.734375 289.535156 332.742188 287.460938 343.519531 285.804688 C 353.210938 282.351562 357.921875 276.71875 363.214844 267.535156 C 363.214844 267.535156 363.214844 267.53125 363.21875 267.53125 C 363.21875 267.527344 363.222656 267.519531 363.226562 267.515625 C 363.226562 267.515625 363.226562 267.511719 363.226562 267.511719 C 363.226562 267.511719 363.230469 267.511719 363.226562 267.511719 C 363.230469 267.503906 363.230469 267.507812 363.230469 267.507812 C 363.234375 267.5 363.230469 267.507812 363.230469 267.507812 C 363.230469 267.503906 363.230469 267.503906 363.230469 267.503906 C 363.234375 267.503906 363.234375 267.5 363.234375 267.5 C 363.234375 267.5 363.234375 267.5 363.234375 267.496094 L 363.234375 267.492188 C 363.234375 267.492188 363.238281 267.492188 363.238281 267.492188 C 363.238281 267.480469 363.238281 267.488281 363.238281 267.488281 C 363.238281 267.488281 363.238281 267.488281 363.238281 267.484375 C 363.238281 267.484375 363.242188 267.484375 363.242188 267.480469 C 363.246094 267.46875 363.242188 267.453125 363.246094 267.441406 C 363.257812 267.398438 363.265625 267.355469 363.261719 267.308594 C 363.261719 267.296875 363.269531 267.285156 363.265625 267.273438 C 362.558594 261.199219 361.714844 255.050781 360.902344 249.101562 C 359.429688 238.324219 357.910156 227.183594 357.109375 216.125 C 357.109375 216.121094 357.105469 216.113281 357.105469 216.105469 C 357.105469 216.097656 357.109375 216.089844 357.109375 216.085938 Z M 290.179688 296.789062 C 297.71875 281.839844 306.882812 275.246094 321.898438 268.035156 L 321.910156 268.578125 C 322.125 276.726562 322.320312 284.425781 317.804688 291.546875 C 308.007812 292.601562 299.664062 294.1875 290.179688 296.789062 Z M 252.84375 309.375 C 253.667969 301.828125 253.679688 294.078125 253.6875 286.574219 C 253.699219 276.820312 253.722656 266.746094 255.53125 257.074219 C 258.828125 261.03125 262.226562 265.003906 265.523438 268.851562 C 273.359375 278.007812 281.457031 287.46875 288.703125 297.292969 C 275.566406 303.582031 265.820312 307.402344 252.84375 309.375 Z M 288.765625 298.214844 C 287.675781 303.574219 286.878906 309.046875 286.105469 314.34375 C 285.484375 318.628906 284.839844 323.050781 284.046875 327.382812 C 274.890625 324.671875 266.652344 319.050781 258.675781 313.617188 C 256.988281 312.464844 255.25 311.277344 253.535156 310.144531 C 266.238281 308.148438 275.890625 304.367188 288.765625 298.214844 Z M 250.433594 182.480469 C 257.046875 185.515625 260.238281 186.839844 265.460938 189.003906 L 268.257812 190.164062 C 252.832031 195.394531 240.628906 201.878906 228.191406 211.5 C 232.304688 205.847656 236.640625 200.300781 240.847656 194.910156 C 244.015625 190.859375 247.28125 186.671875 250.433594 182.480469 Z M 290.824219 172.582031 C 299.625 178.433594 308.585938 184.34375 317.257812 190.058594 L 320.890625 192.453125 C 317.59375 192.183594 314.257812 191.890625 311.011719 191.601562 C 297.855469 190.425781 284.273438 189.230469 271.003906 189.726562 L 271.328125 189.515625 C 278.535156 184.863281 285.980469 180.050781 290.824219 172.582031 Z M 324.628906 181.5 C 335.210938 193.496094 344.773438 204.050781 353.738281 213.640625 C 343.496094 206.707031 333.253906 199.777344 323.019531 192.832031 C 324.023438 188.527344 324.488281 186.046875 324.628906 181.5 Z M 266.175781 268.292969 C 262.894531 264.460938 259.507812 260.503906 256.226562 256.570312 C 277.035156 257.699219 297.769531 262.324219 317.832031 266.800781 L 321.003906 267.507812 C 306.042969 274.746094 296.875 281.46875 289.292969 296.632812 C 282.050781 286.835938 273.984375 277.414062 266.175781 268.292969 Z M 318.019531 265.960938 C 297.761719 261.441406 276.820312 256.773438 255.773438 255.691406 C 259.5 233.675781 269.238281 226.597656 288.855469 217.046875 C 295.046875 231.5 304.726562 244.441406 314.09375 256.960938 C 316.480469 260.148438 318.9375 263.4375 321.296875 266.691406 Z M 221.867188 256.808594 C 222.152344 255.214844 222.425781 253.597656 222.699219 251.964844 C 224.835938 239.207031 227.066406 226.042969 236.640625 217.195312 C 234.792969 229.851562 243.902344 241.8125 251.273438 251.488281 C 252.328125 252.871094 253.320312 254.183594 254.273438 255.472656 C 241.554688 253.140625 232.738281 252.175781 221.867188 256.808594 Z M 254.761719 256.433594 C 252.847656 266.332031 252.835938 276.617188 252.828125 286.574219 C 252.820312 293.851562 252.816406 301.367188 252.0625 308.679688 C 250.738281 306.742188 249.40625 304.800781 248.066406 302.851562 C 238.277344 288.617188 228.15625 273.902344 221.859375 257.734375 C 232.859375 252.9375 241.707031 254.023438 254.761719 256.433594 Z M 232.191406 215.539062 C 233.285156 215.640625 234.414062 215.746094 236.382812 216.230469 C 226.300781 225.273438 224.039062 238.765625 221.855469 251.820312 C 221.710938 252.679688 221.566406 253.535156 221.421875 254.382812 C 219.945312 238.378906 221.4375 226.214844 226.296875 214.269531 C 229.359375 215.269531 230.734375 215.398438 232.191406 215.539062 Z M 289.144531 215.914062 C 282.210938 208.382812 275.070312 200.582031 270.144531 190.601562 C 283.636719 190.015625 297.511719 191.257812 310.933594 192.457031 C 314.4375 192.769531 318.046875 193.09375 321.59375 193.375 C 313.761719 201.433594 303.746094 207.316406 294.054688 213.011719 C 292.40625 213.980469 290.765625 214.945312 289.144531 215.914062 Z M 287.90625 215.839844 C 285.898438 215.511719 283.832031 215.144531 281.65625 214.753906 C 267.625 212.257812 251.816406 209.445312 238.9375 214.800781 C 245.09375 208.105469 252.582031 202.832031 259.839844 197.722656 C 262.976562 195.515625 266.210938 193.230469 269.316406 190.855469 C 274.160156 200.714844 281.09375 208.433594 287.90625 215.839844 Z M 237.660156 216.308594 C 250.566406 210.085938 267 213.019531 281.507812 215.601562 C 283.640625 215.984375 285.679688 216.34375 287.65625 216.671875 C 268.46875 226.082031 258.816406 233.328125 255.011719 255.015625 C 254.046875 253.707031 253.023438 252.367188 251.957031 250.964844 C 244.101562 240.652344 235.203125 228.96875 237.660156 216.308594 Z M 314.785156 256.445312 C 305.535156 244.085938 295.980469 231.316406 289.816406 217.125 C 295.675781 218.792969 301.527344 220.488281 307.375 222.1875 C 318.667969 225.464844 330.335938 228.851562 341.890625 231.972656 C 339.226562 236.394531 336.824219 241.148438 334.496094 245.75 C 330.878906 252.914062 327.140625 260.316406 322.320312 266.640625 C 319.863281 263.230469 317.28125 259.785156 314.785156 256.445312 Z M 307.613281 221.363281 C 301.792969 219.671875 295.972656 217.988281 290.140625 216.324219 C 291.582031 215.46875 293.027344 214.613281 294.488281 213.753906 C 304.304688 207.988281 314.441406 202.027344 322.378906 193.792969 C 327.796875 207.570312 335.085938 220.277344 341.625 231.003906 C 330.238281 227.921875 318.742188 224.589844 307.613281 221.363281 Z M 267.085938 191.46875 C 264.523438 193.375 261.902344 195.21875 259.34375 197.019531 C 251.582031 202.484375 243.5625 208.136719 237.132812 215.535156 C 234.769531 214.921875 233.492188 214.796875 232.269531 214.679688 C 230.875 214.546875 229.632812 214.425781 226.949219 213.570312 C 239.539062 203.550781 251.710938 196.835938 267.085938 191.46875 Z M 220.828125 257.011719 C 219.792969 256.882812 218.867188 256.785156 218.003906 256.695312 C 214.109375 256.292969 211.257812 255.988281 203.097656 253.144531 C 205.515625 249.023438 207.851562 244.824219 210.109375 240.757812 C 214.535156 232.796875 219.097656 224.601562 224.394531 216.851562 C 220.148438 228.644531 219.074219 240.917969 220.828125 257.011719 Z M 203.140625 254.070312 C 211.15625 256.851562 214.011719 257.148438 217.917969 257.550781 C 218.8125 257.644531 219.761719 257.742188 220.847656 257.878906 L 220.816406 258.28125 C 219.878906 269.636719 218.910156 281.359375 216.246094 292.6875 C 210.890625 279.234375 206.632812 265.746094 203.148438 254.160156 C 203.144531 254.132812 203.140625 254.101562 203.140625 254.070312 Z M 216.0625 294.441406 C 222.09375 303.160156 228.414062 311.875 234.527344 320.308594 C 234.691406 320.53125 234.855469 320.757812 235.019531 320.980469 C 225.765625 311.042969 216.3125 300.824219 207.285156 290.441406 C 209.445312 291.433594 211.085938 292.179688 213.027344 293.058594 Z M 235.226562 319.804688 C 229.375 311.734375 223.335938 303.40625 217.539062 295.0625 C 228.878906 299.828125 240.382812 304.878906 251.765625 310.089844 C 248.15625 316.855469 245.757812 320.214844 239.539062 325.757812 C 238.101562 323.773438 236.664062 321.785156 235.226562 319.804688 Z M 216.847656 293.84375 C 219.621094 282.488281 220.644531 270.746094 221.585938 259.351562 C 227.945312 275.097656 237.804688 289.449219 247.355469 303.339844 C 248.625 305.1875 249.882812 307.023438 251.136719 308.863281 C 239.722656 303.648438 228.199219 298.597656 216.847656 293.84375 Z M 322.769531 268.554688 L 322.75 267.820312 C 325.089844 267.988281 327.4375 268.199219 329.914062 268.417969 C 340.613281 269.367188 351.664062 270.347656 361.878906 267.996094 C 355.609375 277.070312 344.6875 280.964844 334.113281 284.730469 C 329.050781 286.535156 323.828125 288.398438 319.253906 290.808594 C 323.167969 283.816406 322.976562 276.390625 322.769531 268.554688 Z M 329.992188 267.5625 C 327.617188 267.351562 325.363281 267.152344 323.121094 266.988281 C 327.925781 260.636719 331.660156 253.273438 335.265625 246.140625 C 337.558594 241.597656 339.933594 236.917969 342.550781 232.566406 C 344.933594 236.785156 347.425781 241.015625 349.84375 245.113281 C 354.035156 252.222656 358.371094 259.566406 362.214844 267.03125 C 351.988281 269.515625 340.808594 268.523438 329.992188 267.5625 Z M 342.644531 231.023438 C 336.15625 220.40625 328.886719 207.808594 323.441406 194.15625 C 333.984375 201.3125 344.535156 208.449219 355.085938 215.589844 L 356.0625 216.25 C 351.230469 222.453125 348.355469 225.515625 342.644531 231.023438 Z M 323.789062 180.730469 C 323.683594 185.597656 323.269531 187.953125 322.253906 192.324219 L 317.730469 189.339844 C 309.621094 183.996094 301.257812 178.484375 293.011719 173.007812 C 303.839844 175.707031 313.753906 178.183594 323.789062 180.730469 Z M 289.785156 172.609375 C 285.035156 179.648438 277.835938 184.292969 270.859375 188.792969 L 269.429688 189.71875 L 265.789062 188.207031 C 260.769531 186.128906 257.632812 184.828125 251.511719 182.027344 C 263.539062 178.433594 276.082031 175.347656 289.785156 172.609375 Z M 227.488281 200.882812 C 234.164062 195.46875 241.042969 189.886719 247.894531 184.410156 C 245.332031 187.777344 242.71875 191.125 240.171875 194.382812 C 235.382812 200.507812 230.4375 206.84375 225.832031 213.300781 C 222.523438 213.246094 220.394531 213.023438 214.511719 211.386719 C 218.84375 207.894531 223.164062 204.386719 227.488281 200.882812 Z M 213.839844 212.09375 C 219.503906 213.683594 221.839844 214.058594 225.226562 214.148438 C 219.234375 222.570312 214.214844 231.601562 209.359375 240.339844 C 207.410156 243.851562 205.402344 247.457031 203.335938 251.027344 C 205.746094 238.144531 208.390625 224.902344 213.839844 212.09375 Z M 202.007812 238.742188 C 204.375 232.3125 206.96875 226.148438 209.984375 219.800781 C 206.664062 229.578125 204.636719 239.488281 202.800781 249.21875 C 202.554688 245.734375 202.292969 242.222656 202.007812 238.742188 Z M 203.410156 258 C 206.714844 268.832031 210.683594 281.0625 215.554688 293.265625 L 213.382812 292.277344 C 210.992188 291.191406 209.070312 290.316406 206.046875 288.925781 C 204.855469 278.632812 204.113281 268.171875 203.410156 258 Z M 240.414062 326.128906 C 246.492188 320.667969 248.917969 317.246094 252.519531 310.507812 C 254.40625 311.746094 256.328125 313.054688 258.195312 314.328125 C 266.101562 319.71875 274.273438 325.28125 283.386719 328.074219 C 274.339844 333.761719 260.101562 330.503906 248.597656 327.867188 C 245.664062 327.195312 242.894531 326.566406 240.414062 326.128906 Z M 272.660156 333.59375 C 268.996094 332.964844 265.328125 332.203125 261.679688 331.375 C 268.582031 332.390625 275.46875 332.542969 281.058594 330.234375 C 278.921875 331.859375 276.71875 332.863281 272.660156 333.59375 Z M 299.875 304.507812 C 297.4375 306.847656 295.300781 309.480469 293.351562 312.261719 C 295.777344 308.554688 298.429688 305.261719 301.601562 302.34375 C 301.039062 303.015625 300.464844 303.734375 299.875 304.507812 Z M 307.089844 297 C 296.824219 303.671875 291.402344 312.683594 285.339844 324.992188 C 285.9375 321.46875 286.457031 317.925781 286.960938 314.46875 C 287.757812 308.988281 288.585938 303.320312 289.734375 297.800781 C 298.453125 295.378906 306.152344 293.824219 314.847656 292.753906 C 311.6875 294.070312 309.253906 295.378906 307.089844 297 Z M 326.109375 288.621094 C 328.769531 287.550781 331.546875 286.558594 334.402344 285.542969 C 343.261719 282.386719 352.351562 279.136719 358.867188 272.839844 C 354.875 278.554688 350.492188 282.40625 343.308594 284.972656 C 336.632812 285.996094 330.992188 287.1875 326.109375 288.621094 Z M 360.054688 249.210938 C 360.761719 254.390625 361.492188 259.722656 362.136719 265.019531 C 358.496094 258.089844 354.480469 251.28125 350.582031 244.675781 C 348.097656 240.464844 345.535156 236.113281 343.09375 231.78125 C 348.773438 226.3125 351.679688 223.238281 356.339844 217.289062 C 357.164062 228.007812 358.628906 238.78125 360.054688 249.210938 Z M 360.054688 249.210938 " fill-opacity="1" fill-rule="nonzero"/></g></svg>